<svg width="25" height="24" viewBox="0 0 25 24" fill="none" xmlns="http://www.w3.org/2000/svg">
<g id="ph:compass">
<path id="Vector" d="M12.75 2.25C10.8216 2.25 8.93657 2.82183 7.33319 3.89317C5.72982 4.96451 4.48013 6.48726 3.74218 8.26884C3.00422 10.0504 2.81114 12.0108 3.18735 13.9021C3.56355 15.7934 4.49215 17.5307 5.85571 18.8943C7.21928 20.2579 8.95656 21.1865 10.8479 21.5627C12.7392 21.9389 14.6996 21.7458 16.4812 21.0078C18.2627 20.2699 19.7855 19.0202 20.8568 17.4168C21.9282 15.8134 22.5 13.9284 22.5 12C22.4973 9.41498 21.4692 6.93661 19.6413 5.10872C17.8134 3.28084 15.335 2.25273 12.75 2.25ZM12.75 20.25C11.1183 20.25 9.52326 19.7661 8.16655 18.8596C6.80984 17.9531 5.75242 16.6646 5.128 15.1571C4.50358 13.6496 4.3402 11.9908 4.65853 10.3905C4.97685 8.79016 5.76259 7.32015 6.91637 6.16637C8.07016 5.01259 9.54017 4.22685 11.1405 3.90852C12.7409 3.59019 14.3997 3.75357 15.9071 4.37799C17.4146 5.00242 18.7031 6.05984 19.6096 7.41655C20.5161 8.77325 21 10.3683 21 12C20.9975 14.1873 20.1275 16.2843 18.5809 17.8309C17.0343 19.3775 14.9373 20.2475 12.75 20.25ZM16.9144 6.82875L10.9144 9.82875C10.7693 9.90162 10.6516 10.0193 10.5788 10.1644L7.57875 16.1644C7.52151 16.2788 7.49448 16.4059 7.50022 16.5337C7.50596 16.6614 7.54429 16.7856 7.61156 16.8944C7.67882 17.0032 7.7728 17.093 7.88454 17.1552C7.99629 17.2175 8.1221 17.2501 8.25 17.25C8.36644 17.2498 8.48127 17.2229 8.58563 17.1713L14.5856 14.1713C14.7307 14.0984 14.8484 13.9807 14.9213 13.8356L17.9213 7.83563C17.992 7.69475 18.0166 7.53515 17.9915 7.3795C17.9664 7.22385 17.8929 7.08007 17.7814 6.96859C17.6699 6.85711 17.5262 6.7836 17.3705 6.75849C17.2149 6.73339 17.0553 6.75797 16.9144 6.82875ZM13.6875 12.9375L9.92719 14.8228L11.8125 11.0625L15.5766 9.18094L13.6875 12.9375Z" fill="white"/>
</g>
</svg>
