<svg width="25" height="24" viewBox="0 0 25 24" fill="none" xmlns="http://www.w3.org/2000/svg">
<g id="hugeicons:shopping-bag-02">
<g id="Group">
<path id="Vector" d="M8.25 7.99994L8.418 5.98594C8.50851 4.89927 9.00412 3.8863 9.80654 3.14794C10.609 2.40958 11.6596 1.99976 12.75 1.99976C13.8404 1.99976 14.891 2.40958 15.6935 3.14794C16.4959 3.8863 16.9915 4.89927 17.082 5.98594L17.25 7.99994M3.812 15.1929L4.177 13.1219C4.609 10.6739 4.824 9.44994 5.679 8.72494C6.534 7.99994 7.762 7.99994 10.217 7.99994H15.283C17.738 7.99994 18.966 7.99994 19.821 8.72494C20.676 9.44994 20.891 10.6739 21.323 13.1219L21.688 15.1929C22.286 18.5809 22.584 20.2749 21.665 21.3879C20.745 22.4999 19.045 22.4999 15.648 22.4999H9.852C6.454 22.4999 4.755 22.4999 3.835 21.3869C2.915 20.2739 3.215 18.5809 3.812 15.1929Z" stroke="white" stroke-width="1.5" stroke-linecap="round" stroke-linejoin="round"/>
<path id="Vector_2" d="M15.75 11C15.62 12.413 14.316 13.5 12.75 13.5C11.184 13.5 9.88 12.413 9.75 11" stroke="white" stroke-width="1.5" stroke-linecap="round" stroke-linejoin="round"/>
</g>
</g>
</svg>
