<svg width="28" height="28" viewBox="0 0 28 28" fill="none" xmlns="http://www.w3.org/2000/svg">
<g id="icon-x-mono">
<path id="Vector" fill-rule="evenodd" clip-rule="evenodd" d="M15.5421 13.9996L20.68 8.86282C20.7814 8.76153 20.8618 8.64128 20.9167 8.50892C20.9716 8.37656 20.9998 8.23469 20.9999 8.0914C20.9999 7.94812 20.9717 7.80623 20.9169 7.67384C20.8621 7.54145 20.7818 7.42114 20.6805 7.3198C20.5792 7.21845 20.4589 7.13805 20.3265 7.08318C20.1941 7.02831 20.0522 7.00004 19.9089 7C19.7656 6.99996 19.6236 7.02814 19.4912 7.08293C19.3588 7.13772 19.2385 7.21806 19.1371 7.31934L13.9992 12.457L8.86035 7.31934C8.65338 7.12607 8.37939 7.02075 8.09622 7.02562C7.81305 7.03049 7.54284 7.14516 7.34264 7.34544C7.14244 7.54572 7.0279 7.81592 7.02319 8.09903C7.01849 8.38215 7.12399 8.65601 7.31743 8.86282L12.4563 13.9996L7.31743 19.1363C7.16556 19.2892 7.06229 19.4836 7.02062 19.695C6.97895 19.9064 7.00074 20.1254 7.08324 20.3245C7.16574 20.5235 7.30527 20.6938 7.48429 20.8138C7.66331 20.9338 7.87382 20.9981 8.08935 20.9988C8.36847 20.9988 8.6476 20.8925 8.86035 20.6798L13.9992 15.5421L19.1371 20.6798C19.2383 20.7813 19.3585 20.8618 19.4909 20.9168C19.6233 20.9717 19.7652 21 19.9086 21C20.0519 21 20.1938 20.9717 20.3262 20.9168C20.4586 20.8618 20.5788 20.7813 20.68 20.6798C20.7815 20.5785 20.8619 20.4582 20.9168 20.3258C20.9717 20.1933 21 20.0514 21 19.908C21 19.7647 20.9717 19.6228 20.9168 19.4903C20.8619 19.3579 20.7815 19.2376 20.68 19.1363L15.5421 13.9996Z" fill="white"/>
</g>
</svg>
