<svg width="25" height="24" viewBox="0 0 25 24" fill="none" xmlns="http://www.w3.org/2000/svg">
<g id="HouseSimple">
<path id="Vector" d="M21.3103 10.1887L13.8103 2.68875C13.529 2.40766 13.1476 2.24976 12.75 2.24976C12.3523 2.24976 11.971 2.40766 11.6897 2.68875L4.18968 10.1887C4.04972 10.3277 3.93877 10.493 3.86328 10.6752C3.7878 10.8574 3.74929 11.0528 3.74999 11.25V20.25C3.74999 20.4489 3.82901 20.6397 3.96966 20.7803C4.11032 20.921 4.30108 21 4.49999 21H21C21.1989 21 21.3897 20.921 21.5303 20.7803C21.671 20.6397 21.75 20.4489 21.75 20.25V11.25C21.7507 11.0528 21.7122 10.8574 21.6367 10.6752C21.5612 10.493 21.4503 10.3277 21.3103 10.1887ZM20.25 19.5H5.24999V11.25L12.75 3.75L20.25 11.25V19.5Z" fill="white"/>
</g>
</svg>
