<svg width="25" height="25" viewBox="0 0 25 25" fill="none" xmlns="http://www.w3.org/2000/svg">
<g id="Ticket">
<path id="Vector" d="M22.6562 10.1562C22.8635 10.1562 23.0622 10.0739 23.2087 9.92743C23.3552 9.78091 23.4375 9.5822 23.4375 9.375V6.25C23.4375 5.8356 23.2729 5.43817 22.9799 5.14515C22.6868 4.85212 22.2894 4.6875 21.875 4.6875H3.125C2.7106 4.6875 2.31317 4.85212 2.02015 5.14515C1.72712 5.43817 1.5625 5.8356 1.5625 6.25V9.375C1.5625 9.5822 1.64481 9.78091 1.79132 9.92743C1.93784 10.0739 2.13655 10.1562 2.34375 10.1562C2.96535 10.1562 3.56149 10.4032 4.00103 10.8427C4.44057 11.2823 4.6875 11.8784 4.6875 12.5C4.6875 13.1216 4.44057 13.7177 4.00103 14.1573C3.56149 14.5968 2.96535 14.8438 2.34375 14.8438C2.13655 14.8438 1.93784 14.9261 1.79132 15.0726C1.64481 15.2191 1.5625 15.4178 1.5625 15.625V18.75C1.5625 19.1644 1.72712 19.5618 2.02015 19.8549C2.31317 20.1479 2.7106 20.3125 3.125 20.3125H21.875C22.2894 20.3125 22.6868 20.1479 22.9799 19.8549C23.2729 19.5618 23.4375 19.1644 23.4375 18.75V15.625C23.4375 15.4178 23.3552 15.2191 23.2087 15.0726C23.0622 14.9261 22.8635 14.8438 22.6562 14.8438C22.0346 14.8438 21.4385 14.5968 20.999 14.1573C20.5594 13.7177 20.3125 13.1216 20.3125 12.5C20.3125 11.8784 20.5594 11.2823 20.999 10.8427C21.4385 10.4032 22.0346 10.1562 22.6562 10.1562ZM3.125 16.3281C4.00804 16.1488 4.80193 15.6697 5.37217 14.9721C5.94241 14.2744 6.25392 13.4011 6.25392 12.5C6.25392 11.5989 5.94241 10.7256 5.37217 10.0279C4.80193 9.33026 4.00804 8.85118 3.125 8.67188V6.25H8.59375V18.75H3.125V16.3281Z" fill="black"/>
</g>
</svg>
