<svg width="45" height="23" viewBox="0 0 45 23" fill="none" xmlns="http://www.w3.org/2000/svg">
<path d="M12.1001 5.12V18.23H10.7501V11.54H9.07008V17.57H7.78008V5.39H9.07008V10.37H10.7501V5.12H12.1001ZM1.48008 14.9V6.68H2.86008V13.67C4.07508 13.67 5.39508 13.565 6.88008 13.28L7.03008 14.48C5.23008 14.825 3.73008 14.915 2.32008 14.9H1.48008ZM22.0061 7.22C22.0061 8.84 23.2811 10.355 25.3061 10.94L24.6161 12.05C23.0711 11.57 21.9161 10.565 21.3161 9.29C20.7311 10.655 19.5611 11.75 17.9861 12.26L17.2661 11.18C19.3211 10.55 20.5961 8.945 20.5961 7.22V7.07H17.6561V5.93H24.8861V7.07H22.0061V7.22ZM19.4561 18.08V12.83H20.8061V14.3H26.6561V12.83H28.0361V18.08H19.4561ZM20.8061 16.94H26.6561V15.41H20.8061V16.94ZM26.6561 12.23V5.12H28.0361V12.23H26.6561Z" fill="black"/>
<path d="M40 16.5L35.6699 9H44.3301L40 16.5Z" fill="black"/>
</svg>
