<svg width="25" height="24" viewBox="0 0 25 24" fill="none" xmlns="http://www.w3.org/2000/svg">
<g id="hugeicons:shopping-bag-02">
<g id="Group">
<path id="Vector" d="M8.25 8.00001L8.418 5.98601C8.50851 4.89933 9.00412 3.88636 9.80654 3.148C10.609 2.40964 11.6596 1.99982 12.75 1.99982C13.8404 1.99982 14.891 2.40964 15.6935 3.148C16.4959 3.88636 16.9915 4.89933 17.082 5.98601L17.25 8.00001M3.812 15.193L4.177 13.122C4.609 10.674 4.824 9.45001 5.679 8.72501C6.534 8.00001 7.762 8.00001 10.217 8.00001H15.283C17.738 8.00001 18.966 8.00001 19.821 8.72501C20.676 9.45001 20.891 10.674 21.323 13.122L21.688 15.193C22.286 18.581 22.584 20.275 21.665 21.388C20.745 22.5 19.045 22.5 15.648 22.5H9.852C6.454 22.5 4.755 22.5 3.835 21.387C2.915 20.274 3.215 18.581 3.812 15.193Z" stroke="#2ED9FF" stroke-width="1.5" stroke-linecap="round" stroke-linejoin="round"/>
<path id="Vector_2" d="M15.75 11C15.62 12.413 14.316 13.5 12.75 13.5C11.184 13.5 9.88 12.413 9.75 11" stroke="#2ED9FF" stroke-width="1.5" stroke-linecap="round" stroke-linejoin="round"/>
</g>
</g>
</svg>
