<svg width="25" height="24" viewBox="0 0 25 24" fill="none" xmlns="http://www.w3.org/2000/svg">
<g id="solar:heart-linear">
<path id="Vector" d="M13 5.85238L12.4977 6.35249C12.5628 6.4223 12.6408 6.47783 12.7271 6.51575C12.8134 6.55368 12.9062 6.57323 13 6.57323C13.0938 6.57323 13.1866 6.55368 13.2729 6.51575C13.3592 6.47783 13.4372 6.4223 13.5023 6.35249L13 5.85238ZM10.6056 18.184C9.19535 17.0347 7.65395 15.9123 6.4307 14.4889C5.23256 13.0925 4.39535 11.4642 4.39535 9.35028H3C3 11.9143 4.03256 13.8705 5.38791 15.4468C6.71814 16.9953 8.41488 18.2359 9.7414 19.3169L10.6056 18.184ZM4.39535 9.35028C4.39535 7.2825 5.52558 5.5475 7.06884 4.81753C8.56837 4.10872 10.5833 4.29626 12.4977 6.35249L13.5023 5.35323C11.2326 2.91326 8.59442 2.51028 6.48837 3.5057C4.42884 4.47995 3 6.742 3 9.35028H4.39535ZM9.7414 19.3169C10.2186 19.7055 10.7302 20.119 11.2484 20.4326C11.7665 20.7451 12.3581 21 13 21V19.5574C12.7116 19.5574 12.373 19.442 11.9526 19.1871C11.5312 18.9332 11.0949 18.5831 10.6056 18.184L9.7414 19.3169ZM16.2586 19.3169C17.5851 18.235 19.2819 16.9962 20.6121 15.4468C21.9674 13.8696 23 11.9143 23 9.35028H21.6047C21.6047 11.4642 20.7674 13.0925 19.5693 14.4889C18.346 15.9123 16.8047 17.0347 15.3944 18.184L16.2586 19.3169ZM23 9.35028C23 6.742 21.5721 4.47995 19.5116 3.5057C17.4056 2.51028 14.7693 2.91326 12.4977 5.35226L13.5023 6.35249C15.4167 4.29722 17.4316 4.10872 18.9312 4.81753C20.4744 5.5475 21.6047 7.28154 21.6047 9.35028H23ZM15.3944 18.184C14.9051 18.5831 14.4688 18.9332 14.0474 19.1871C13.627 19.441 13.2884 19.5574 13 19.5574V21C13.6419 21 14.2335 20.7451 14.7516 20.4326C15.2707 20.119 15.7814 19.7055 16.2586 19.3169L15.3944 18.184Z" fill="white"/>
</g>
</svg>
