<svg width="82" height="19" viewBox="0 0 82 19" fill="none" xmlns="http://www.w3.org/2000/svg">
<path d="M4.5693 18.5C3.2093 18.5 2.2093 18.44 1.5693 18.32C0.929297 18.2 0.609297 18.06 0.609297 17.9L2.4093 14.03C2.8693 14.11 3.8193 14.19 5.2593 14.27C6.6993 14.33 8.5693 14.36 10.8693 14.36H13.2393C13.9393 14.36 14.4093 14.26 14.6493 14.06C14.8893 13.86 15.0093 13.57 15.0093 13.19V12.89C15.0093 12.41 14.8893 12.08 14.6493 11.9C14.4093 11.72 13.9393 11.63 13.2393 11.63H6.3693C4.3493 11.63 2.8793 11.26 1.9593 10.52C1.0393 9.76 0.579297 8.53 0.579297 6.83V5.75C0.579297 4.87 0.739297 4.06 1.0593 3.32C1.3993 2.58 1.9693 1.99 2.7693 1.55C3.5693 1.09 4.6693 0.86 6.0693 0.86H16.0293C17.2493 0.86 18.2593 0.93 19.0593 1.07C19.8793 1.21 20.2893 1.36 20.2893 1.52L19.3893 5.24C18.8293 5.18 17.7693 5.12 16.2093 5.06C14.6693 4.98 12.7093 4.94 10.3293 4.94L8.1693 4.91C7.5493 4.91 7.1093 5 6.8493 5.18C6.5893 5.34 6.4493 5.65 6.4293 6.11V6.32C6.4293 6.78 6.5693 7.1 6.8493 7.28C7.1293 7.46 7.5793 7.55 8.1993 7.55H14.7993C16.0793 7.55 17.1693 7.68 18.0693 7.94C18.9693 8.2 19.6593 8.68 20.1393 9.38C20.6193 10.06 20.8593 11.07 20.8593 12.41V13.49C20.8593 14.99 20.4693 16.2 19.6893 17.12C18.9293 18.04 17.5993 18.5 15.6993 18.5H4.5693ZM25.0563 13.1V8.42H34.6563V13.1H25.0563ZM44.8103 18.5V4.91H37.6703V0.829999H57.8603V4.91H50.6303V18.5H44.8103ZM65.9711 18.5L57.8711 0.89H64.2011L68.6411 11.51L69.4511 13.97H69.7211L70.5011 11.51L75.0311 0.89H81.2111L80.7311 2.69L73.2011 18.5H65.9711Z" fill="#2ED9FF"/>
</svg>
